<svg width="3209" height="2769" viewBox="0 0 3209 2769" fill="none" xmlns="http://www.w3.org/2000/svg">
<path d="M145.94 2142.23C167.732 2054.4 222.353 1833.39 364.508 1713.21C375.193 1726.37 387.957 1743.61 401.665 1764.58C381.185 1829.99 363.22 1898.88 349.337 1967.75C319.084 2117.01 308.662 2256.92 318.174 2383.59C329.865 2537.51 371.044 2667.16 440.907 2769L562.716 2762.08C629.479 2632.6 670.436 2498.55 684.49 2363.66C696.445 2249.7 688.999 2134.78 662.816 2022.23C638.191 1917.08 599.3 1823.72 557.594 1748.28C584.836 1671.22 614.039 1606.56 639.712 1560.04C733.081 1701.66 817.804 1887.47 862.28 1985.32L985.339 1997.5C1051.65 1903.35 1060.7 1648.83 1064.79 1325.24L1295.27 1643.89L1416.64 1634.35C1494.57 1477.09 1490.24 1299.01 1470.75 1129.85C1510.62 1183.37 1544.38 1236.91 1573.74 1292.45L1706.03 1276.19C1737.46 1144.32 1746.84 1011.04 1747.29 878.346C1825.48 1015.94 1898.26 1156.56 1964.97 1300.1L1009.4 2058.64L1098.25 2170.58L2025.5 1434.28C2047.62 1485.06 2069.02 1536.06 2089.56 1587.09L2226.45 1554.56C2218.13 1467.92 2210.19 1381 2202.31 1293.75L2329.33 1193.04L2332 1195.52L2353.21 1173.13L2256.81 1068.12L2187.63 1123.16C2173.99 962.115 2161.6 800.759 2150.15 639.898C2215.61 724.337 2314.87 855.513 2464.94 1059.36L2591.83 1032C2625.48 867.644 2642.67 698.714 2643.2 529.776C2643.25 465.612 2641.07 401.593 2636.32 337.664L3089.84 1021.25L3208.48 942.491L2583.49 0.821482L2454.48 53.5385C2505.87 310.824 2514.28 579.784 2479.8 840.348C2414.81 752.922 2359.27 678.961 2311.17 616.092C2258.41 547.182 2215.74 493.034 2184.19 454.667C2124.49 382.238 2104.98 365.76 2074.57 361.283L1993.62 436.011C2008.88 670.009 2026.59 905.769 2046.3 1140.67C1950.84 945.262 1844.73 754.919 1728.83 571.652L1597.67 612.101C1603.93 760.535 1610.47 912.591 1596.71 1060.8C1546.98 992.052 1488.46 924.07 1419.38 854.017L1298.18 912.269C1302.44 946.84 1307.39 982.378 1312.51 1016.92C1333.32 1163.66 1354.55 1314.2 1329.12 1447.91L1056.88 1071.51L928.506 1106.12C924.64 1148.04 923.878 1218.89 922.848 1308.77C921.64 1421.42 919.854 1561.56 911.043 1681.48C909.346 1704.18 907.631 1724.84 905.565 1743.39C847.173 1625.9 772.842 1490.81 694.607 1393.55L590.568 1385.85C548.091 1425.69 501.729 1505.41 459.392 1606.05C459.252 1605.85 459.112 1605.66 458.972 1605.47C438.407 1582.69 395.6 1534.82 342.19 1555.51L330.191 1561.54C320.947 1567.34 311.983 1573.53 303.351 1579.77C102.501 1725.05 34.3913 2000.53 7.96873 2107.01C5.20108 2118.13 2.83391 2127.78 0.988146 2134.12L138.09 2173.79C140.248 2165.47 142.86 2155.34 145.94 2142.23ZM510.267 2000.78C549.826 2134.25 574.348 2330.96 494.992 2558.97C431.532 2366.6 461.058 2134.33 488.771 1996.92C491.276 1984.22 493.921 1971.72 496.705 1959.41C501.406 1972.78 506.002 1986.81 510.267 2000.78Z" fill="#A2EEFF"/>
</svg>
